<?xml version="1.0" encoding="utf-8"?>
<!-- Generator: Adobe Illustrator 15.0.0, SVG Export Plug-In  -->
<!DOCTYPE svg PUBLIC "-//W3C//DTD SVG 1.1//EN" "http://www.w3.org/Graphics/SVG/1.1/DTD/svg11.dtd" [
	<!ENTITY ns_flows "http://ns.adobe.com/Flows/1.0/">
]>
<svg version="1.1"
	 xmlns="http://www.w3.org/2000/svg" xmlns:xlink="http://www.w3.org/1999/xlink" xmlns:a="http://ns.adobe.com/AdobeSVGViewerExtensions/3.0/"
	 x="0px" y="0px" width="582px" height="582px" viewBox="0 0 582 582" overflow="visible" enable-background="new 0 0 582 582"
	 xml:space="preserve">
<defs>
</defs>
<path display="none" d="M423.077,496.464c0.24-0.795,0.014-0.021,0.278-0.795c-24.226-1.328-45.392-8.456-45.58-8.52
	c0.011-0.243,0.019-0.482-0.009-0.003c-2.919,50.942-42.627,67.963-86.627,67.963c-44.667,0-83.862-17.021-86.781-67.963
	c-0.027-0.479-0.02-0.24-0.009,0.003c-0.188,0.063-21.431,7.191-45.657,8.52c0.265,0.773,0,0,0.24,0.795
	c9.166,30.375,0.698,75.876-3.618,94.962c57.869,0.193,135.825,0.709,135.825,0.709s77.821-0.516,135.689-0.709
	C422.514,572.34,413.911,526.839,423.077,496.464z"/>
<g>
	
		<circle fill="none" stroke="#8C3F8E" stroke-width="20" stroke-linecap="round" stroke-miterlimit="10" stroke-dasharray="0,20.0541" cx="290.859" cy="290.858" r="280.859"/>
	<circle fill="#FFFFFF" cx="290.859" cy="290.858" r="280.859"/>
</g>
<g>
	<defs>
		<circle id="SVGID_1_" cx="290.859" cy="290.858" r="280.859"/>
	</defs>
	<clipPath id="SVGID_2_">
		<use xlink:href="#SVGID_1_"  overflow="visible"/>
	</clipPath>
	<g clip-path="url(#SVGID_2_)">
		<path fill="#F5E0CD" d="M79.835,571.829c0.021,0.021,0.043,0,0.066-0.04C79.85,571.802,79.821,571.815,79.835,571.829z"/>
		<path fill="#F5E0CD" d="M447.887,480.01c-69.702-8.131-114.522-10.5-119.515-67.139c15.66-14.325,29.018-36.298,38.395-61.51
			c4.202,3.538,11.089-1.249,12.555-12.671c1.838-14.822,5.062-21.232,14.152-42.17c7.368-16.972-5.204-18.46-13.225-13.09
			c-0.081-5.727-0.338-11.504-0.338-16.073c0-74.006-40.858-102-91.053-102s-90.719,27.994-90.719,102c0,0-0.449,8.225-0.541,16.549
			c-7.959-5.926-21.492-4.848-13.911,12.614c9.09,20.938,12.314,27.348,14.152,42.17c1.526,11.89,8.927,16.593,13.058,12.194
			c9.425,25.401,22.905,47.555,38.702,61.971c-4.985,56.654-49.807,59.023-119.516,67.154c-44.411,5.18-48.978,89.651-50.183,91.779
			c4.08-1.035,209.238,0.346,209.238,0.346s204.997-1.381,209.084-0.346C497.012,569.66,492.298,485.189,447.887,480.01z"/>
		<path fill="#F5E0CD" d="M498.224,571.789c0.023,0.04,0.046,0.061,0.066,0.04C498.304,571.814,498.275,571.802,498.224,571.789z"/>
	</g>
	<path clip-path="url(#SVGID_2_)" fill="#F0D0B4" d="M289.269,452.352c15.042,0,30.979-6.688,44.044-17.298
		c-2.107-6.724-4.597-13.127-4.94-22.183c-11.812,11.514-25.397,17.486-39.347,17.486c-13.979,0-27.594-5.942-39.425-17.502
		c-0.333,8.921-3.063,15.953-5.107,22.611C257.675,446.299,274.052,452.352,289.269,452.352z"/>
	<path clip-path="url(#SVGID_2_)" fill="#EFC7B0" d="M288.858,353.858c-9.406,0.21-15.398-5.472-16.153-1.335
		c-1.065,5.834,14.058,9.834,14.058,9.834l5.201-0.211c0,0,17.509-3.969,12.509-8.463
		C299.473,349.191,296.307,353.692,288.858,353.858z"/>
	<path clip-path="url(#SVGID_2_)" fill="#EFD8C5" d="M317.077,278.476c0,0-19.77,1.184-18.044,24.23
		c0,12.151,1.438,12.883,1.438,12.883s13.836-33.065,33.812-38.398C338.477,276.071,317.077,278.476,317.077,278.476z"/>
	<path clip-path="url(#SVGID_2_)" fill="#EFD8C5" d="M272.705,283.357c6.676,8.314,6.167,5.115,10.802,20.349
		c2.178,7.159,0,28.317,0,28.317c-8.123-43.043-38.627-34.347-64.368-38.604c-28.16-4.658,20.957-20.061,20.957-20.061
		L272.705,283.357z"/>
	<g clip-path="url(#SVGID_2_)">
		<path fill="#B08874" d="M270.871,296.386c-1.62-1.173-3.33-2.204-5.106-3.097c-1.763-0.915-3.588-1.705-5.462-2.34
			c-3.738-1.282-7.664-2.045-11.602-1.971c-3.938-0.017-7.853,0.815-11.521,2.274c-3.68,1.45-7.091,3.563-10.263,5.994
			c1.448-1.382,3.028-2.627,4.68-3.774c1.672-1.119,3.438-2.106,5.286-2.929c3.697-1.645,7.75-2.503,11.81-2.563
			c4.062,0.007,8.11,0.784,11.873,2.25C264.318,291.705,267.869,293.728,270.871,296.386z"/>
	</g>
	<path clip-path="url(#SVGID_2_)" fill="#EFD8C5" d="M249.49,413.978c0.04-0.37,0.08-0.74,0.11-1.12c-0.01,0.39-0.06,0.77-0.08,1.15
		C249.51,413.997,249.5,413.987,249.49,413.978z"/>
	<path clip-path="url(#SVGID_2_)" fill="#EFD8C5" d="M265.37,424.417c-5.5-2.85-10.8-6.699-15.77-11.56
		c-15.47-14.12-28.72-35.65-38.1-60.39c-7.79-37.2-13.6-65.15-13.6-65.15s11.48-80.29,12.53-57.96c1.04,22.33-0.29,48.33,8.71,54.33
		c3.83,2.56,9.19,7.55,9.19,7.55s-30.55,35.13-12.29,50.12C239.1,360.287,231.3,378.207,265.37,424.417z"/>
	<g clip-path="url(#SVGID_2_)">
		<path d="M241.172,293.64c-4.13-0.03-7.683-4.659-7.683-4.659s1.282,2.942,2.931,4.306
			C238.065,294.651,241.172,293.64,241.172,293.64z"/>
		<path d="M232.486,302.397c-4.084-0.612-8.313,3.408-8.313,3.408s1.724-2.707,3.564-3.798
			C229.575,300.915,232.486,302.397,232.486,302.397z"/>
		<path d="M234.486,304.397c-4.084-0.612-8.313,3.408-8.313,3.408s1.724-2.707,3.564-3.798
			C231.575,302.915,234.486,304.397,234.486,304.397z"/>
		<path d="M237.027,294.864c-4.121-0.275-7.393-5.106-7.393-5.106s1.104,3.012,2.67,4.472
			C233.866,295.689,237.027,294.864,237.027,294.864z"/>
		<path d="M233.006,295.896c-4.118-0.31-7.35-5.169-7.35-5.169s1.079,3.021,2.633,4.494
			C229.839,296.694,233.006,295.896,233.006,295.896z"/>
		<path d="M231.117,296.348c-4.32,1.447-9.438-4.303-9.438-4.303s3.272,4.667,5.118,5.75
			C228.64,298.878,231.117,296.348,231.117,296.348z"/>
	</g>
	<path clip-path="url(#SVGID_2_)" d="M216.041,296.501c0,0,8.01,0.953,15.727-1.581c0.865-0.381,1.791-0.744,2.779-1.081
		c0.025-0.012,0.052-0.022,0.077-0.034c0,0-0.008,0.011-0.009,0.012c3.275-1.111,7.156-1.93,11.334-2.063
		c0.085-0.003,0.17-0.005,0.255-0.007c0.555-0.015,1.112-0.021,1.676-0.01c0.497,0.01,0.988,0.035,1.477,0.066
		c0.081,0.006,0.161,0.012,0.242,0.018c11.778,0.851,20.823,7.781,20.928,9.599c0.147,2.605-10.402,9.034-23.01,8.788
		c-12.559-0.247-22.461-7.722-22.641-9.658C220.801,299.971,216.041,296.501,216.041,296.501z"/>
	<g clip-path="url(#SVGID_2_)">
		<g>
			<path fill="#FFFFFF" d="M272.703,302.078c0.187,2.603-10.266,9.188-22.876,9.131c-12.609-0.06-22.652-7.443-22.788-9.343
				c-0.199-2.806,10.265-9.188,22.875-9.132C262.523,292.795,272.565,300.175,272.703,302.078z"/>
			<path d="M272.752,302.076c0.022,0.567-0.311,1.057-0.628,1.477c-0.335,0.423-0.723,0.799-1.128,1.15
				c-0.814,0.7-1.705,1.303-2.623,1.853c-1.842,1.095-3.805,1.977-5.822,2.695c-4.024,1.466-8.292,2.338-12.617,2.435
				c-4.328,0.091-8.685-0.638-12.781-2.109c-2.042-0.753-4.026-1.671-5.914-2.786c-0.943-0.56-1.862-1.167-2.741-1.861
				c-0.438-0.35-0.868-0.718-1.279-1.144c-0.205-0.214-0.407-0.44-0.601-0.711c-0.176-0.296-0.421-0.529-0.479-1.225
				c0.007-0.915,0.446-1.509,0.805-1.996c0.386-0.49,0.81-0.892,1.246-1.265c0.876-0.736,1.81-1.343,2.767-1.891
				c1.918-1.089,3.938-1.935,6.004-2.617c4.149-1.316,8.499-1.919,12.818-1.82c4.333,0.103,8.59,1.081,12.569,2.662
				c1.996,0.777,3.93,1.716,5.753,2.838c0.911,0.562,1.794,1.171,2.623,1.85c0.413,0.341,0.814,0.698,1.182,1.091
				C272.254,301.102,272.654,301.507,272.752,302.076z M272.653,302.08c-0.088-0.499-0.484-0.914-0.832-1.297
				c-0.366-0.384-0.767-0.733-1.181-1.067c-0.83-0.665-1.714-1.261-2.625-1.811c-1.825-1.097-3.758-2.01-5.75-2.762
				c-3.983-1.499-8.229-2.334-12.486-2.334c-4.257,0.004-8.51,0.724-12.54,2.089c-2.013,0.687-3.976,1.535-5.813,2.604
				c-0.916,0.536-1.803,1.129-2.606,1.817c-0.398,0.347-0.778,0.718-1.098,1.133c-0.309,0.411-0.6,0.883-0.584,1.385
				c0.059,0.462,0.456,0.895,0.797,1.271c0.362,0.383,0.761,0.733,1.172,1.067c0.826,0.666,1.707,1.265,2.615,1.815
				c1.819,1.102,3.749,2.02,5.737,2.775c3.977,1.509,8.218,2.355,12.476,2.367c4.257,0.007,8.512-0.727,12.539-2.106
				c2.012-0.692,3.973-1.549,5.814-2.616c0.917-0.537,1.809-1.126,2.621-1.811c0.405-0.343,0.791-0.71,1.123-1.121
				C272.35,303.071,272.671,302.604,272.653,302.08z"/>
		</g>
		
			<radialGradient id="SVGID_3_" cx="252.0576" cy="301.377" r="8.9152" gradientTransform="matrix(0.9929 -0.1187 0.1187 0.9929 -36.4551 31.6559)" gradientUnits="userSpaceOnUse">
			<stop  offset="0" style="stop-color:#FFFFFF"/>
			<stop  offset="0.0164" style="stop-color:#FCFDFE"/>
			<stop  offset="0.3323" style="stop-color:#CEE1E9"/>
			<stop  offset="0.6129" style="stop-color:#ADCCDA"/>
			<stop  offset="0.845" style="stop-color:#98C0D1"/>
			<stop  offset="1" style="stop-color:#91BBCE"/>
		</radialGradient>
		<path fill="url(#SVGID_3_)" d="M258.785,298.92c-0.263-2.205-1.275-4.135-2.746-5.577c-1.948-0.366-3.996-0.599-6.125-0.608
			c-2.44-0.01-4.795,0.224-7.014,0.623c-1.993,1.966-3.095,4.792-2.736,7.788c0.614,5.141,5.281,8.812,10.423,8.196
			C255.729,308.728,259.399,304.061,258.785,298.92z"/>
		<circle fill="#344247" cx="249.436" cy="299.715" r="4.36"/>
		<circle fill="#FFFFFF" cx="246.301" cy="297.916" r="1.827"/>
	</g>
	<g clip-path="url(#SVGID_2_)">
		<path fill="#B08874" d="M308.078,296.775c2.954-2.71,6.468-4.797,10.194-6.339c3.735-1.533,7.769-2.382,11.83-2.461
			c4.06-0.012,8.128,0.774,11.854,2.352c1.861,0.79,3.645,1.746,5.336,2.834c1.673,1.118,3.274,2.334,4.747,3.69
			c-3.215-2.374-6.662-4.426-10.368-5.81c-3.693-1.393-7.622-2.155-11.559-2.068c-3.938-0.004-7.85,0.829-11.564,2.177
			c-1.862,0.669-3.673,1.491-5.42,2.437C311.368,294.512,309.677,295.574,308.078,296.775z"/>
	</g>
	<g clip-path="url(#SVGID_2_)">
		<path d="M336.396,293.64c4.13-0.03,7.683-4.659,7.683-4.659s-1.282,2.942-2.931,4.306
			C339.503,294.651,336.396,293.64,336.396,293.64z"/>
		<path d="M345.082,302.397c4.084-0.612,8.313,3.408,8.313,3.408s-1.724-2.707-3.564-3.798
			C347.993,300.915,345.082,302.397,345.082,302.397z"/>
		<path d="M343.082,304.397c4.084-0.612,8.313,3.408,8.313,3.408s-1.724-2.707-3.564-3.798
			C345.993,302.915,343.082,304.397,343.082,304.397z"/>
		<path d="M340.541,294.864c4.121-0.275,7.393-5.106,7.393-5.106s-1.104,3.012-2.67,4.472
			C343.702,295.689,340.541,294.864,340.541,294.864z"/>
		<path d="M344.562,295.896c4.118-0.31,7.35-5.169,7.35-5.169s-1.079,3.021-2.633,4.494
			C347.729,296.694,344.562,295.896,344.562,295.896z"/>
		<path d="M346.451,296.348c4.32,1.447,9.438-4.303,9.438-4.303s-3.272,4.667-5.118,5.75
			C348.929,298.878,346.451,296.348,346.451,296.348z"/>
	</g>
	<path clip-path="url(#SVGID_2_)" d="M361.527,296.501c0,0-8.01,0.953-15.727-1.581c-0.865-0.381-1.791-0.744-2.779-1.081
		c-0.025-0.012-0.052-0.022-0.077-0.034c0,0,0.008,0.011,0.009,0.012c-3.275-1.111-7.156-1.93-11.334-2.063
		c-0.085-0.003-0.17-0.005-0.255-0.007c-0.555-0.015-1.112-0.021-1.676-0.01c-0.497,0.01-0.988,0.035-1.477,0.066
		c-0.081,0.006-0.161,0.012-0.242,0.018c-11.778,0.851-20.823,7.781-20.928,9.599c-0.147,2.605,10.402,9.034,23.01,8.788
		c12.559-0.247,22.461-7.722,22.641-9.658C356.768,299.971,361.527,296.501,361.527,296.501z"/>
	<g clip-path="url(#SVGID_2_)">
		<g>
			<path fill="#FFFFFF" d="M306.042,302.419c-0.147,2.605,10.402,9.034,23.01,8.788c12.606-0.248,22.539-7.78,22.646-9.682
				c0.157-2.809-10.401-9.034-23.009-8.789C316.081,292.985,306.151,300.514,306.042,302.419z"/>
			<path d="M306.092,302.42c-0.005,0.523,0.326,0.981,0.652,1.381c0.341,0.402,0.734,0.76,1.146,1.092
				c0.826,0.664,1.729,1.23,2.657,1.744c1.862,1.021,3.838,1.829,5.86,2.473c4.06,1.246,8.322,1.788,12.527,1.622
				c4.205-0.17,8.337-1.189,12.191-2.793c1.934-0.788,3.805-1.734,5.554-2.851c0.872-0.558,1.715-1.161,2.488-1.816
				c0.384-0.327,0.753-0.67,1.07-1.023c0.158-0.175,0.304-0.355,0.415-0.522c0.116-0.141,0.165-0.383,0.145-0.227
				c0.03-0.172-0.147-0.543-0.421-0.89c-0.271-0.352-0.622-0.691-0.995-1.013c-0.754-0.641-1.612-1.208-2.502-1.723
				c-1.788-1.025-3.718-1.847-5.698-2.509c-3.952-1.353-8.139-2.121-12.352-2.158c-4.205-0.032-8.439,0.737-12.416,2.225
				c-1.981,0.762-3.904,1.685-5.719,2.791c-0.906,0.555-1.786,1.155-2.61,1.824c-0.41,0.335-0.809,0.688-1.172,1.072
				C306.569,301.505,306.178,301.921,306.092,302.42z M305.992,302.418c0.095-0.569,0.491-0.977,0.836-1.377
				c0.364-0.395,0.762-0.754,1.173-1.097c0.823-0.683,1.701-1.296,2.606-1.862c1.812-1.133,3.735-2.081,5.721-2.869
				c3.971-1.571,8.217-2.481,12.494-2.554c4.273-0.068,8.555,0.583,12.626,1.885c2.033,0.656,4.02,1.475,5.889,2.519
				c0.933,0.525,1.837,1.107,2.665,1.794c0.411,0.346,0.806,0.717,1.145,1.142c0.325,0.422,0.652,0.913,0.65,1.498
				c-0.079,0.616-0.489,1.009-0.832,1.417c-0.366,0.397-0.766,0.758-1.177,1.101c-0.826,0.685-1.706,1.298-2.612,1.864
				c-1.816,1.132-3.742,2.079-5.73,2.864c-3.975,1.567-8.224,2.473-12.5,2.54c-4.275,0.062-8.553-0.617-12.61-1.949
				c-2.028-0.669-4.006-1.502-5.869-2.551c-0.93-0.527-1.832-1.107-2.661-1.786c-0.412-0.342-0.807-0.707-1.151-1.121
				C306.326,303.464,305.983,302.985,305.992,302.418z"/>
		</g>
		
			<radialGradient id="SVGID_4_" cx="326.7324" cy="301.4697" r="8.9145" gradientTransform="matrix(0.9946 0.1038 -0.1038 0.9946 35.463 -32.7869)" gradientUnits="userSpaceOnUse">
			<stop  offset="0" style="stop-color:#FFFFFF"/>
			<stop  offset="0.0164" style="stop-color:#FCFDFE"/>
			<stop  offset="0.3323" style="stop-color:#CEE1E9"/>
			<stop  offset="0.6129" style="stop-color:#ADCCDA"/>
			<stop  offset="0.845" style="stop-color:#98C0D1"/>
			<stop  offset="1" style="stop-color:#91BBCE"/>
		</radialGradient>
		<path fill="url(#SVGID_4_)" d="M319.911,299.053c0.23-2.208,1.214-4.153,2.662-5.617c1.942-0.395,3.986-0.658,6.115-0.699
			c2.44-0.046,4.8,0.152,7.022,0.518c2.022,1.937,3.166,4.746,2.853,7.746c-0.537,5.15-5.148,8.89-10.299,8.352
			C323.113,308.814,319.374,304.203,319.911,299.053z"/>
		<circle fill="#344247" cx="329.27" cy="299.709" r="4.361"/>
		<circle fill="#FFFFFF" cx="326.411" cy="297.24" r="1.827"/>
		<g>
			<path d="M306.092,302.42c-0.005,0.523,0.326,0.981,0.652,1.381c0.341,0.402,0.734,0.76,1.146,1.092
				c0.826,0.664,1.729,1.23,2.657,1.744c1.862,1.021,3.838,1.829,5.86,2.473c4.06,1.246,8.322,1.788,12.527,1.622
				c4.205-0.17,8.337-1.189,12.191-2.793c1.934-0.788,3.805-1.734,5.554-2.851c0.872-0.558,1.715-1.161,2.488-1.816
				c0.384-0.327,0.753-0.67,1.07-1.023c0.158-0.175,0.304-0.355,0.415-0.522c0.116-0.141,0.165-0.383,0.145-0.227
				c0.03-0.172-0.147-0.543-0.421-0.89c-0.271-0.352-0.622-0.691-0.995-1.013c-0.754-0.641-1.612-1.208-2.502-1.723
				c-1.788-1.025-3.718-1.847-5.698-2.509c-3.952-1.353-8.139-2.121-12.352-2.158c-4.205-0.032-8.439,0.737-12.416,2.225
				c-1.981,0.762-3.904,1.685-5.719,2.791c-0.906,0.555-1.786,1.155-2.61,1.824c-0.41,0.335-0.809,0.688-1.172,1.072
				C306.569,301.505,306.178,301.921,306.092,302.42z M305.992,302.418c0.095-0.569,0.491-0.977,0.836-1.377
				c0.364-0.395,0.762-0.754,1.173-1.097c0.823-0.683,1.701-1.296,2.606-1.862c1.812-1.133,3.735-2.081,5.721-2.869
				c3.971-1.571,8.217-2.481,12.494-2.554c4.273-0.068,8.555,0.583,12.626,1.885c2.033,0.656,4.02,1.475,5.889,2.519
				c0.933,0.525,1.837,1.107,2.665,1.794c0.411,0.346,0.806,0.717,1.145,1.142c0.325,0.422,0.652,0.913,0.65,1.498
				c-0.079,0.616-0.489,1.009-0.832,1.417c-0.366,0.397-0.766,0.758-1.177,1.101c-0.826,0.685-1.706,1.298-2.612,1.864
				c-1.816,1.132-3.742,2.079-5.73,2.864c-3.975,1.567-8.224,2.473-12.5,2.54c-4.275,0.062-8.553-0.617-12.61-1.949
				c-2.028-0.669-4.006-1.502-5.869-2.551c-0.93-0.527-1.832-1.107-2.661-1.786c-0.412-0.342-0.807-0.707-1.151-1.121
				C306.326,303.464,305.983,302.985,305.992,302.418z"/>
		</g>
	</g>
	<g clip-path="url(#SVGID_2_)">
		<path fill="#CEA28B" d="M278.887,357.5c0.316-1.68,2.936-2.597,4.775-2.25c1.841,0.348,3.076,1.992,2.76,3.672
			c-0.01,0.05-0.032,0.094-0.045,0.142l-7.505-1.416C278.876,357.6,278.877,357.549,278.887,357.5z"/>
		<path fill="#CEA28B" d="M299.008,357.172c-0.429-1.654-3.104-2.394-4.916-1.923c-1.813,0.47-2.936,2.193-2.506,3.849
			c0.013,0.049,0.038,0.091,0.053,0.139l7.395-1.918C299.025,357.27,299.021,357.221,299.008,357.172z"/>
	</g>
	<path clip-path="url(#SVGID_2_)" fill="#DDD1C3" d="M316.39,163.607c20,0.5,25.819-12.304,26-12c1.251,2.106,4,5.5,0,10.25
		c-0.671,1.771,9,0.5,9,0s-9,13.25-24,8.5L316.39,163.607z"/>
	<path clip-path="url(#SVGID_2_)" fill="#C7B299" d="M288.929,93.357c-16.724,1.477-84.949-4.864-43.949,76.136
		c46.16,14.364,50.66-3.136,80.954-3.308C325.934,166.185,385.218,84.857,288.929,93.357z"/>
	<path clip-path="url(#SVGID_2_)" fill="#B29A80" d="M286.763,208.857c-13.785-0.354-32.551-18-59.551,1.5
		s-29.072,83.104-29.072,82.302s-36.5-34.802-16.5-74.302s74.863-56.5,105.123-56.5c32.895,0,90.605,10,100.377,52.5
		c13.869,60.323-10.864,78.309-10.864,78.309s-5.013-74.43-32.636-86.809C324.673,197.357,306.211,209.357,286.763,208.857z"/>
	<path clip-path="url(#SVGID_2_)" fill="#B29A80" d="M197.956,290.033c-4.161,13.486,3.58,43.975,7.062,72.397
		c2.801,22.869-1.203,64.704-1.447,64.719c-0.245,0.016,13.675-61.48,7.927-81.158C208.314,335.092,198.281,292.244,197.956,290.033
		"/>
	<path clip-path="url(#SVGID_2_)" fill="#B29A80" d="M376.275,291.666c10.864,51.191-8.136,89.166-8.136,89.166
		s23.414-37.485,17.5-61.975C377.615,285.632,376.275,291.666,376.275,291.666z"/>
	<path clip-path="url(#SVGID_2_)" fill="#B29A80" d="M303.287,279.342c4.728-5.984,34.508-10.364,41.158-5.841
		c6.65,4.523,12.513,9.807,12.831,10.007c0,0-11.566-5.602-16.821-5.751c-8.129-0.23-28.921,5.32-37.168,9.449
		C301.074,288.314,302.068,280.885,303.287,279.342z"/>
	<path clip-path="url(#SVGID_2_)" fill="#B29A80" d="M274.965,279.342c-4.728-5.984-34.508-10.364-41.158-5.841
		c-6.65,4.523-12.513,9.807-12.831,10.007c0,0,11.566-5.602,16.821-5.751c8.129-0.23,28.921,5.32,37.168,9.449
		C277.178,288.314,276.184,280.885,274.965,279.342z"/>
	<g clip-path="url(#SVGID_2_)">
		<path fill="#8C3F8E" d="M316.744,383.535c-2.223-0.688-15.134-4.674-18.396-5.449c-6.302-1.497-7.473-0.723-9.583,1.357
			c-2.097-2.08-3.156-2.854-9.458-1.357c-3.146,0.748-15.213,4.48-18.059,5.363C266.726,384.588,312.279,385.031,316.744,383.535z"
			/>
		<path fill="#A048A0" d="M261.248,383.449c-0.387,0.12-0.608,0.189-0.608,0.189s9.583,10.719,22.583,10.719h4.917h1h5.417
			c13,0,22.521-10.719,22.521-10.719s-0.121-0.037-0.333-0.104C312.279,385.031,266.726,384.588,261.248,383.449z"/>
		<g>
			<path fill="#8C3F8E" d="M283.354,386.122c-0.081,0.525-0.054,1.067-0.035,1.604c0.008,0.535,0.035,1.07,0.075,1.603
				c0.036,0.533,0.171,1.058,0.129,1.58c-0.021,0.529-0.117,1.033-0.173,1.592l-0.088,0.047c-0.492-0.436-0.626-1.039-0.737-1.577
				c-0.106-0.555,0.018-1.109,0.069-1.654c0.06-0.547,0.133-1.09,0.226-1.63c0.116-0.536,0.223-1.079,0.438-1.593L283.354,386.122z"
				/>
		</g>
		<g>
			<path fill="#8C3F8E" d="M294.037,386.093c0.216,0.514,0.322,1.057,0.438,1.593c0.093,0.54,0.166,1.083,0.226,1.63
				c0.052,0.545,0.176,1.1,0.069,1.654c-0.111,0.538-0.245,1.142-0.737,1.577l-0.088-0.047c-0.056-0.559-0.151-1.062-0.173-1.592
				c-0.042-0.522,0.093-1.047,0.129-1.58c0.04-0.532,0.067-1.067,0.075-1.603c0.019-0.536,0.046-1.078-0.035-1.604L294.037,386.093z
				"/>
		</g>
		<g>
			<path fill="#8C3F8E" d="M293.046,386.687c0.224,0.967,0.406,1.938,0.542,2.92c0.066,0.49,0.215,0.982,0.146,1.485
				c-0.033,0.251-0.074,0.503-0.16,0.756c-0.04,0.127-0.091,0.253-0.155,0.38c-0.035,0.062-0.038,0.127-0.081,0.188
				c-0.055,0.056-0.197,0.152-0.197,0.158v-0.1c0-0.379-0.311-0.915-0.367-1.375c-0.078-0.477,0.016-0.966,0.036-1.454
				c0.042-0.978,0.082-1.962,0.147-2.95L293.046,386.687z"/>
		</g>
	</g>
	<g clip-path="url(#SVGID_2_)">
		<path fill="#F0D0B4" d="M289.276,364.747l0.715,2.401l0.325,1.19l0.277,1.19c0.175,0.794,0.721,1.58,0.436,2.384
			c-0.112,0.401-0.286,0.806-0.569,1.214c-0.128,0.204-0.3,0.409-0.482,0.615c-0.106,0.103-0.198,0.206-0.318,0.311
			c-0.12,0.127-0.229,0.155-0.41,0.376l-0.373-0.143c-0.316-0.067-0.51-0.349-0.726-0.517c-0.188-0.194-0.367-0.391-0.503-0.588
			c-0.3-0.395-0.489-0.792-0.617-1.192c-0.315-0.801,0.204-1.619,0.363-2.43s0.356-1.623,0.599-2.433
			c0.255-0.808,0.509-1.623,0.886-2.409L289.276,364.747z"/>
	</g>
	<g clip-path="url(#SVGID_2_)">
		<path fill="#F0D0B4" d="M269.64,399.858c2.294-0.462,4.351-1.441,6.575-2.175c2.202-0.775,4.524-1.371,6.921-1.605
			c2.396-0.206,4.852-0.04,7.166,0.619c2.314,0.641,4.481,1.714,6.337,3.161c-2.243-0.71-4.441-1.312-6.662-1.635
			c-2.219-0.312-4.442-0.377-6.659-0.155c-2.223,0.179-4.431,0.653-6.69,1.114c-1.127,0.24-2.274,0.466-3.443,0.636
			C272.018,399.963,270.807,400.075,269.64,399.858z"/>
	</g>
	<path clip-path="url(#SVGID_2_)" d="M288.14,492.732c-20.415,0-49.355,1.018-78-27.626c-3.955,0-13.582,3.268-13.334,4.252
		c-2.667,52.249-29.669,102.143-29.669,102.143l121.002,0.627V492.732z"/>
	<path clip-path="url(#SVGID_2_)" d="M288.14,492.732c20,0,49.354,1.018,77.998-27.626c3.955,0,13.582,3.268,13.334,4.252
		c2.666,52.249,29.669,102.143,29.669,102.143l-121.001,0.627V492.732z"/>
	<path clip-path="url(#SVGID_2_)" stroke="#000000" stroke-miterlimit="10" d="M202.803,472.242"/>
</g>
</svg>
